<?xml version="1.0" encoding="utf-8"?>
<!-- Generator: Adobe Illustrator 24.1.1, SVG Export Plug-In . SVG Version: 6.00 Build 0)  -->
<svg version="1.1" xmlns="http://www.w3.org/2000/svg" xmlns:xlink="http://www.w3.org/1999/xlink" x="0px" y="0px"
	 viewBox="0 0 100 125" style="enable-background:new 0 0 100 125;" xml:space="preserve">
<style type="text/css">
	.st0{fill:#C4C4C4;}
</style>
<g id="Layer_2">
	<rect x="12" y="15.3" class="st0" width="53.7" height="92.1"/>
	<rect x="65.7" y="33.1" class="st0" width="22.4" height="75.1"/>
</g>
<g id="Layer_1" xmlns:cc="http://creativecommons.org/ns#" xmlns:dc="http://purl.org/dc/elements/1.1/" xmlns:inkscape="http://www.inkscape.org/namespaces/inkscape" xmlns:rdf="http://www.w3.org/1999/02/22-rdf-syntax-ns#" xmlns:sodipodi="http://sodipodi.sourceforge.net/DTD/sodipodi-0.dtd" xmlns:svg="http://www.w3.org/2000/svg">
	<g transform="translate(0,-952.36218)">
		<path d="M12,966.1c-1,0-2,1-2,2v92c0,1,1,2,2,2c25.3,0,50.7,0,76,0c1,0,2-1,2-2v-74c0-1-1-2-2-2H68v-16c0-1-1-2-2-2H12z M14,970.1
			h50c0,28.7,0,59.3,0,88H46v-20c0-1-1-2-2-2H34c-1,0-2,1-2,2v20H14V970.1z M18,972.1c-1,0-2,1-2,2v10c0,1,1,2,2,2h10c1,0,2-1,2-2
			v-10c0-1-1-2-2-2H18z M34,972.1c-1,0-2,1-2,2v10c0,1,1,2,2,2h10c1,0,2-1,2-2v-10c0-1-1-2-2-2H34z M50,972.1c-1,0-2,1-2,2v10
			c0,1,1,2,2,2h10c1,0,2-1,2-2v-10c0-1-1-2-2-2H50z M20,976.1h6v6h-6V976.1z M36,976.1h6v6h-6V976.1z M52,976.1h6v6h-6V976.1z
			 M18,988.1c-1,0-2,1-2,2v10c0,1,1,2,2,2h10c1,0,2-1,2-2v-10c0-1-1-2-2-2H18z M34,988.1c-1,0-2,1-2,2v10c0,1,1,2,2,2h10
			c1,0,2-1,2-2v-10c0-1-1-2-2-2H34z M50,988.1c-1,0-2,1-2,2v10c0,1,1,2,2,2h10c1,0,2-1,2-2v-10c0-1-1-2-2-2H50z M68,988.1h18v70H68
			V988.1z M72,990.1c-1,0-2,1-2,2v10c0,1,1,2,2,2h10c1,0,2-1,2-2v-10c0-1-1-2-2-2H72z M20,992.1h6v6h-6V992.1z M36,992.1h6v6h-6
			V992.1z M52,992.1h6v6h-6V992.1z M74,994.1h6v6h-6V994.1z M18,1004.1c-1,0-2,1-2,2v10c0,1,1,2,2,2h10c1,0,2-1,2-2v-10c0-1-1-2-2-2
			H18z M34,1004.1c-1,0-2,1-2,2v10c0,1,1,2,2,2h10c1,0,2-1,2-2v-10c0-1-1-2-2-2H34z M50,1004.1c-1,0-2,1-2,2v10c0,1,1,2,2,2h10
			c1,0,2-1,2-2v-10c0-1-1-2-2-2H50z M72,1006.1c-1,0-2,1-2,2v10c0,1,1,2,2,2h10c1,0,2-1,2-2v-10c0-1-1-2-2-2H72z M20,1008.1h6v6h-6
			V1008.1z M36,1008.1h6v6h-6V1008.1z M52,1008.1h6v6h-6V1008.1z M74,1010.1h6v6h-6V1010.1z M18,1020.1c-1,0-2,1-2,2v10c0,1,1,2,2,2
			h10c1,0,2-1,2-2v-10c0-1-1-2-2-2H18z M34,1020.1c-1,0-2,1-2,2v10c0,1,1,2,2,2h10c1,0,2-1,2-2v-10c0-1-1-2-2-2H34z M50,1020.1
			c-1,0-2,1-2,2v10c0,1,1,2,2,2h10c1,0,2-1,2-2v-10c0-1-1-2-2-2H50z M72,1022.1c-1,0-2,1-2,2v10c0,1,1,2,2,2h10c1,0,2-1,2-2v-10
			c0-1-1-2-2-2H72z M20,1024.1h6v6h-6V1024.1z M36,1024.1h6v6h-6V1024.1z M52,1024.1h6v6h-6V1024.1z M74,1026.1h6v6h-6V1026.1z
			 M72,1038.1c-1,0-2,1-2,2v10c0,1,1,2,2,2h10c1,0,2-1,2-2v-10c0-1-1-2-2-2H72z M36,1040.1h6v18h-6V1040.1z M74,1042.1h6v6h-6
			V1042.1z"/>
	</g>
</g>
</svg>
